<svg width="35" height="43" viewBox="0 0 35 43" fill="none" xmlns="http://www.w3.org/2000/svg">
<path d="M0 4C0 1.79086 1.79086 0 4 0H31C33.2091 0 35 1.79086 35 4V32C35 34.2091 33.2091 36 31 36H4C1.79086 36 0 34.2091 0 32V4Z" fill="#585B58"/>
<path d="M18.9409 9.88541L26.7185 24.4343C26.9718 24.908 26.4018 25.3933 25.9745 25.0677L24.8645 24.2218C21.1051 21.3567 15.8949 21.3567 12.1355 24.2218L11.0255 25.0677C10.5982 25.3933 10.0282 24.908 10.2815 24.4343L18.0591 9.88541C18.2474 9.53304 18.7526 9.53304 18.9409 9.88541Z" fill="#E5E5E5" stroke="black"/>
<path d="M1.3214 19.1191C2.0097 18.6602 2.92576 19.1879 2.87416 20.0135L2.07423 32.8124C2.03548 33.4323 2.56537 33.9373 3.18272 33.8687L8.86715 33.237C9.71163 33.1432 10.281 34.0786 9.80965 34.7856L9 36.0001L2 36.0001V36.0001C0.89543 36.0001 0 35.1047 0 34.0001V20L1.3214 19.1191Z" fill="white"/>
<path d="M1.3214 19.1191C2.0097 18.6602 2.92576 19.1879 2.87416 20.0135L2.07423 32.8124C2.03548 33.4323 2.56537 33.9373 3.18272 33.8687L8.86715 33.237C9.71163 33.1432 10.281 34.0786 9.80965 34.7856L9 36.0001L2 36.0001V36.0001C0.89543 36.0001 0 35.1047 0 34.0001V20L1.3214 19.1191Z" fill="white"/>
<path d="M2 36.0001V36.0001C0.89543 36.0001 0 35.1047 0 34.0001V20L1.3214 19.1191C2.0097 18.6602 2.92576 19.1879 2.87416 20.0135L2.07423 32.8124C2.03548 33.4323 2.56537 33.9373 3.18272 33.8687L8.86715 33.237C9.71163 33.1432 10.281 34.0786 9.80965 34.7856L9 36.0001L2 36.0001Z" stroke="black"/>
<path d="M33.6786 16.881C32.9903 17.3399 32.0742 16.8122 32.1258 15.9866L32.9258 3.18769C32.9645 2.56774 32.4346 2.06283 31.8173 2.13143L26.1328 2.76309C25.2884 2.85693 24.719 1.92149 25.1903 1.21452L26 3.8147e-06L33 0V0C34.1046 0 35 0.895431 35 2L35 16.0001L33.6786 16.881Z" fill="white"/>
<path d="M33.6786 16.881C32.9903 17.3399 32.0742 16.8122 32.1258 15.9866L32.9258 3.18769C32.9645 2.56774 32.4346 2.06283 31.8173 2.13143L26.1328 2.76309C25.2884 2.85693 24.719 1.92149 25.1903 1.21452L26 3.8147e-06L33 0V0C34.1046 0 35 0.895431 35 2L35 16.0001L33.6786 16.881Z" fill="white"/>
<path d="M33 0V0C34.1046 0 35 0.895431 35 2L35 16.0001L33.6786 16.881C32.9903 17.3399 32.0742 16.8122 32.1258 15.9866L32.9258 3.18769C32.9645 2.56774 32.4346 2.06283 31.8173 2.13143L26.1328 2.76309C25.2884 2.85693 24.719 1.92149 25.1903 1.21452L26 3.8147e-06L33 0Z" stroke="black"/>
<path d="M16.9903 18.1375L18.5 15.118L20.0097 18.1375C19.0176 17.8986 17.9824 17.8986 16.9903 18.1375Z" fill="#C4C4C4" stroke="black"/>
<path d="M3.83203 39.9307C3.83203 40.0615 3.81543 40.1797 3.78223 40.2852C3.74902 40.3887 3.70508 40.4805 3.65039 40.5605C3.5957 40.6387 3.53223 40.7061 3.45996 40.7627C3.3877 40.8174 3.31152 40.8623 3.23145 40.8975C3.15332 40.9326 3.07324 40.959 2.99121 40.9766C2.91113 40.9922 2.83496 41 2.7627 41H1.38867C1.25781 41 1.14062 40.9834 1.03711 40.9502C0.933594 40.917 0.841797 40.873 0.761719 40.8184C0.683594 40.7617 0.616211 40.6973 0.55957 40.625C0.504883 40.5527 0.459961 40.4775 0.424805 40.3994C0.389648 40.3193 0.363281 40.2393 0.345703 40.1592C0.330078 40.0771 0.322266 40.001 0.322266 39.9307V38.8994C0.322266 38.7041 0.357422 38.5391 0.427734 38.4043C0.5 38.2676 0.588867 38.1572 0.694336 38.0732C0.801758 37.9873 0.917969 37.9258 1.04297 37.8887C1.16797 37.8516 1.2832 37.833 1.38867 37.833H2.7627V38.5947H1.39453C1.29297 38.5947 1.21582 38.6211 1.16309 38.6738C1.11035 38.7246 1.08398 38.7998 1.08398 38.8994V39.9248C1.08398 40.0283 1.10938 40.1064 1.16016 40.1592C1.21289 40.2119 1.28906 40.2383 1.38867 40.2383H2.7627C2.86621 40.2383 2.94336 40.2119 2.99414 40.1592C3.04492 40.1064 3.07031 40.0303 3.07031 39.9307V36.4941H3.83203V39.9307ZM5.33203 37.1826H4.57031V36.4941H5.33203V37.1826ZM5.33203 41H4.57031V37.833H5.33203V41ZM9.50977 41.3047C9.50977 41.4355 9.49316 41.5527 9.45996 41.6562C9.42676 41.7617 9.38281 41.8535 9.32812 41.9316C9.27344 42.0117 9.20996 42.0791 9.1377 42.1338C9.06543 42.1904 8.98926 42.2363 8.90918 42.2715C8.83105 42.3066 8.75098 42.332 8.66895 42.3477C8.58887 42.3652 8.5127 42.374 8.44043 42.374H7.06641V41.6123H8.44043C8.54395 41.6123 8.62109 41.5859 8.67188 41.5332C8.72266 41.4805 8.74805 41.4043 8.74805 41.3047V38.8994C8.74805 38.7998 8.72266 38.7246 8.67188 38.6738C8.62109 38.6211 8.54395 38.5947 8.44043 38.5947H7.06641C6.97266 38.5947 6.89844 38.624 6.84375 38.6826C6.78906 38.7393 6.76172 38.8115 6.76172 38.8994V39.9307C6.76172 40.0303 6.78809 40.1064 6.84082 40.1592C6.89355 40.2119 6.9707 40.2383 7.07227 40.2383H8.44043V41H7.06641C6.99414 41 6.91797 40.9922 6.83789 40.9766C6.75781 40.959 6.67773 40.9326 6.59766 40.8975C6.51953 40.8623 6.44434 40.8174 6.37207 40.7627C6.2998 40.7061 6.23633 40.6387 6.18164 40.5605C6.12695 40.4805 6.08301 40.3887 6.0498 40.2852C6.0166 40.1797 6 40.0615 6 39.9307V38.8994C6 38.8271 6.00781 38.751 6.02344 38.6709C6.04102 38.5908 6.06738 38.5117 6.10254 38.4336C6.1377 38.3535 6.18262 38.2773 6.2373 38.2051C6.29395 38.1328 6.36133 38.0693 6.43945 38.0146C6.51953 37.96 6.61133 37.916 6.71484 37.8828C6.81836 37.8496 6.93555 37.833 7.06641 37.833H8.44043C8.5127 37.833 8.58887 37.8418 8.66895 37.8594C8.75098 37.875 8.83105 37.9004 8.90918 37.9355C8.98926 37.9707 9.06543 38.0166 9.1377 38.0732C9.20996 38.1279 9.27344 38.1953 9.32812 38.2754C9.38281 38.3535 9.42676 38.4443 9.45996 38.5479C9.49316 38.6514 9.50977 38.7686 9.50977 38.8994V41.3047ZM10.9805 37.1826H10.2188V36.4941H10.9805V37.1826ZM10.9805 41H10.2188V37.833H10.9805V41ZM14.5928 38.5947H13.2627V41H12.4922V38.5947H11.502V37.833H12.4922V36.7988H13.2627V37.833H14.5928V38.5947ZM18.1816 39.9512C18.1816 40.0566 18.1631 40.1709 18.126 40.2939C18.0889 40.415 18.0283 40.5283 17.9443 40.6338C17.8623 40.7373 17.7539 40.8242 17.6191 40.8945C17.4863 40.9648 17.3242 41 17.1328 41H15.7588C15.6533 41 15.5391 40.9814 15.416 40.9443C15.2949 40.9072 15.1816 40.8477 15.0762 40.7656C14.9727 40.6816 14.8857 40.5732 14.8154 40.4404C14.7451 40.3057 14.71 40.1426 14.71 39.9512C14.71 39.8457 14.7285 39.7314 14.7656 39.6084C14.8027 39.4854 14.8623 39.3721 14.9443 39.2686C15.0283 39.1631 15.1367 39.0752 15.2695 39.0049C15.4043 38.9346 15.5674 38.8994 15.7588 38.8994H17.1328V39.626H15.7588C15.6553 39.626 15.5752 39.6582 15.5186 39.7227C15.4619 39.7852 15.4336 39.8633 15.4336 39.957C15.4336 40.0566 15.4658 40.1348 15.5303 40.1914C15.5967 40.2461 15.6748 40.2734 15.7646 40.2734H17.1328C17.2363 40.2734 17.3164 40.2422 17.373 40.1797C17.4297 40.1172 17.458 40.0391 17.458 39.9453V38.8818C17.458 38.7822 17.4268 38.7031 17.3643 38.6445C17.3037 38.5859 17.2266 38.5566 17.1328 38.5566H15.46V37.833H17.1328C17.2383 37.833 17.3516 37.8516 17.4727 37.8887C17.5957 37.9258 17.709 37.9863 17.8125 38.0703C17.918 38.1523 18.0059 38.2607 18.0762 38.3955C18.1465 38.5283 18.1816 38.6904 18.1816 38.8818V39.9512ZM20.2236 41H19.8838C19.7744 41 19.6572 40.9814 19.5322 40.9443C19.4092 40.9072 19.2939 40.8467 19.1865 40.7627C19.0791 40.6768 18.9902 40.5664 18.9199 40.4316C18.8496 40.2949 18.8145 40.1279 18.8145 39.9307V36.4941H19.5762V39.9307C19.5762 40.0244 19.6055 40.0996 19.6641 40.1562C19.7227 40.2109 19.7959 40.2383 19.8838 40.2383H20.2236V41ZM26.1445 41H25.3828V38.8994C25.3828 38.7998 25.3574 38.7246 25.3066 38.6738C25.2559 38.6211 25.1797 38.5947 25.0781 38.5947H23.7041V37.833H25.0781C25.1504 37.833 25.2266 37.8418 25.3066 37.8594C25.3867 37.875 25.4658 37.9004 25.5439 37.9355C25.624 37.9707 25.7002 38.0166 25.7725 38.0732C25.8447 38.1279 25.9082 38.1953 25.9629 38.2754C26.0176 38.3535 26.0615 38.4443 26.0947 38.5479C26.1279 38.6514 26.1445 38.7686 26.1445 38.8994V41ZM23.3965 41H22.6348V36.4941H23.3965V41ZM30.3047 40.6162C30.3047 40.6709 30.2949 40.7217 30.2754 40.7686C30.2559 40.8154 30.2285 40.8564 30.1934 40.8916C30.1602 40.9248 30.1201 40.9512 30.0732 40.9707C30.0283 40.9902 29.9795 41 29.9268 41H28.2041C28.1104 41 28.0098 40.9893 27.9023 40.9678C27.7969 40.9463 27.6924 40.9121 27.5889 40.8652C27.4854 40.8164 27.3848 40.7559 27.2871 40.6836C27.1914 40.6094 27.1074 40.5205 27.0352 40.417C26.9629 40.3115 26.9043 40.1904 26.8594 40.0537C26.8164 39.917 26.7949 39.7627 26.7949 39.5908V37.833H27.5566V39.5908C27.5566 39.6904 27.5732 39.7803 27.6064 39.8604C27.6416 39.9385 27.6885 40.0059 27.7471 40.0625C27.8057 40.1191 27.874 40.1631 27.9521 40.1943C28.0322 40.2236 28.1182 40.2383 28.21 40.2383H29.543V37.833H30.3047V40.6162ZM34.5117 39.9307C34.5117 40.0029 34.5029 40.0791 34.4854 40.1592C34.4697 40.2393 34.4443 40.3193 34.4092 40.3994C34.374 40.4775 34.3281 40.5527 34.2715 40.625C34.2168 40.6973 34.1494 40.7617 34.0693 40.8184C33.9912 40.873 33.9004 40.917 33.7969 40.9502C33.6934 40.9834 33.5762 41 33.4453 41H32.0713C31.999 41 31.9229 40.9922 31.8428 40.9766C31.7627 40.959 31.6826 40.9326 31.6025 40.8975C31.5244 40.8623 31.4492 40.8174 31.377 40.7627C31.3047 40.7061 31.2402 40.6387 31.1836 40.5605C31.1289 40.4805 31.085 40.3887 31.0518 40.2852C31.0186 40.1797 31.002 40.0615 31.002 39.9307V36.4941H31.7637V39.9307C31.7637 40.0244 31.793 40.0996 31.8516 40.1562C31.9102 40.2109 31.9834 40.2383 32.0713 40.2383H33.4453C33.541 40.2383 33.6152 40.21 33.668 40.1533C33.7227 40.0967 33.75 40.0225 33.75 39.9307V38.8994C33.75 38.8037 33.7217 38.7295 33.665 38.6768C33.6084 38.6221 33.5352 38.5947 33.4453 38.5947H32.0713V37.833H33.4453C33.5176 37.833 33.5938 37.8418 33.6738 37.8594C33.7539 37.875 33.833 37.9004 33.9111 37.9355C33.9912 37.9707 34.0674 38.0166 34.1396 38.0732C34.2119 38.1279 34.2754 38.1953 34.3301 38.2754C34.3848 38.3535 34.4287 38.4443 34.4619 38.5479C34.4951 38.6514 34.5117 38.7686 34.5117 38.8994V39.9307Z" fill="#F50715" fill-opacity="0.7"/>
</svg>
